<?xml version="1.0" standalone="no"?>
<!DOCTYPE svg PUBLIC "-//W3C//DTD SVG 20010904//EN"
 "http://www.w3.org/TR/2001/REC-SVG-20010904/DTD/svg10.dtd">
<svg version="1.0" xmlns="http://www.w3.org/2000/svg"
 width="500.000000pt" height="500.000000pt" viewBox="0 0 500.000000 500.000000"
 preserveAspectRatio="xMidYMid meet">

<g transform="translate(0.000000,500.000000) scale(0.100000,-0.100000)"
fill="#000000" stroke="none">
<path d="M2310 3989 c-331 -58 -616 -275 -767 -584 -22 -44 -55 -109 -75 -145
-182 -324 -145 -769 87 -1069 205 -266 516 -406 855 -387 237 13 403 88 638
287 255 215 370 378 435 615 50 179 34 463 -33 619 -23 53 -95 147 -165 215
l-57 55 45 -65 c123 -179 178 -357 178 -575 0 -201 -75 -425 -187 -561 l-24
-29 26 63 c51 129 68 226 67 372 -2 207 -47 360 -158 531 -91 140 -276 301
-423 366 -139 61 -363 101 -495 88 -156 -16 -348 -87 -481 -179 l-69 -48 48
56 c170 196 459 326 725 326 99 0 228 -23 322 -56 137 -49 387 -186 462 -253
23 -21 21 -16 -9 21 -115 141 -318 265 -523 320 -89 23 -330 33 -422 17z m75
-284 c-180 -27 -296 -86 -430 -220 -69 -69 -100 -109 -134 -175 -25 -47 -55
-99 -68 -116 -73 -97 -124 -262 -124 -399 0 -160 35 -275 121 -399 167 -241
440 -354 734 -303 159 28 252 87 467 298 107 105 145 150 178 209 76 138 109
296 92 437 -5 43 -8 79 -7 81 9 8 48 -167 55 -248 16 -173 -15 -321 -104 -505
-61 -125 -119 -195 -199 -240 -161 -90 -297 -125 -487 -125 -113 0 -154 4
-235 25 -110 28 -252 94 -331 155 -29 22 -53 36 -53 32 0 -11 106 -113 168
-160 148 -115 503 -151 750 -76 38 12 -38 -27 -98 -50 -122 -47 -182 -57 -338
-57 -157 0 -239 15 -361 64 -206 83 -406 282 -493 490 -72 170 -94 363 -62
533 l19 99 6 -125 c4 -69 12 -147 18 -175 31 -135 89 -269 161 -375 41 -60
160 -193 167 -187 2 3 -16 34 -41 69 -65 93 -191 368 -218 474 -33 129 -33
353 0 473 13 46 30 97 38 113 29 55 168 190 258 249 85 56 137 77 336 137 19
5 96 10 170 10 l135 0 -90 -13z m222 -61 c180 -37 358 -142 456 -269 29 -37
29 -38 4 -16 -35 32 -34 25 8 -45 20 -33 48 -95 62 -139 23 -70 27 -97 27
-210 0 -120 -2 -137 -30 -216 -24 -68 -111 -226 -120 -216 -1 1 7 36 18 77 27
102 27 257 -1 362 -35 134 -115 265 -217 357 -73 64 -214 135 -324 162 -153
38 -336 11 -490 -73 l-75 -40 60 62 c104 107 210 168 355 201 96 22 171 23
267 3z m-103 -214 c121 -31 209 -82 301 -174 131 -132 195 -285 195 -465 0
-141 -48 -293 -118 -372 -39 -45 -164 -104 -263 -125 -177 -38 -398 9 -539
114 l-35 27 33 -42 c77 -98 136 -132 277 -158 100 -19 212 -16 305 9 30 9 56
14 58 11 8 -8 -105 -66 -166 -85 -259 -81 -511 -17 -691 175 -106 114 -162
245 -176 412 -7 80 11 203 40 268 13 28 13 25 14 -53 2 -196 73 -377 205 -520
58 -63 83 -73 47 -20 -16 24 -42 70 -59 103 -16 33 -46 91 -66 130 -82 160
-94 409 -25 546 20 41 70 87 145 135 147 94 350 127 518 84z"/>
<path d="M3318 1274 c-16 -5 -18 -24 -18 -210 l0 -204 65 0 c57 0 69 3 90 25
21 20 25 34 25 85 0 34 -5 71 -12 83 -7 13 -11 55 -9 102 2 70 0 83 -18 99
-20 18 -90 29 -123 20z m93 -40 c12 -7 19 -83 9 -108 -8 -21 -16 -26 -45 -26
l-35 0 0 76 0 76 33 -7 c17 -4 35 -9 38 -11z m20 -186 c13 -20 11 -132 -3
-146 -7 -7 -29 -12 -50 -12 l-38 0 0 91 0 92 41 -6 c23 -3 46 -11 50 -19z"/>
<path d="M3573 1270 c-46 -18 -56 -81 -23 -135 11 -18 40 -49 65 -69 47 -39
67 -83 58 -131 -7 -34 -39 -46 -98 -38 -36 5 -45 3 -45 -10 0 -20 21 -27 81
-27 72 0 99 29 99 106 0 56 0 56 -70 128 -48 50 -70 80 -70 97 0 42 15 54 65
53 53 -1 63 20 14 30 -39 7 -48 7 -76 -4z"/>
<path d="M1310 1066 c0 -176 2 -206 15 -206 13 0 15 26 16 168 l1 167 38 -82
c22 -47 45 -83 53 -83 9 0 29 32 48 77 l34 76 5 -159 c4 -142 7 -159 23 -162
16 -3 17 10 15 200 -3 184 -5 203 -20 203 -12 0 -31 -29 -61 -90 l-45 -90 -43
90 c-27 55 -51 91 -61 93 -17 3 -18 -12 -18 -202z"/>
<path d="M1672 1083 c-23 -104 -42 -196 -42 -205 0 -31 28 -19 35 15 22 107
22 107 69 107 l44 0 13 -66 c12 -59 29 -87 45 -71 3 3 -11 79 -31 169 -51 232
-53 238 -73 238 -15 0 -25 -31 -60 -187z m92 -17 c7 -36 7 -36 -29 -36 -39 0
-41 5 -25 80 22 100 22 100 35 44 7 -29 15 -68 19 -88z"/>
<path d="M1890 1263 c0 -4 14 -51 32 -104 l32 -97 -31 -83 c-17 -46 -34 -92
-38 -101 -5 -14 -2 -18 14 -18 17 0 24 14 45 78 13 42 28 76 32 75 5 -1 19
-36 32 -77 18 -61 27 -76 42 -76 18 0 17 7 -16 99 l-36 100 36 101 c20 56 36
103 36 106 0 2 -8 4 -18 4 -13 0 -23 -19 -41 -85 -13 -47 -26 -85 -30 -85 -3
0 -15 30 -25 68 -24 84 -33 102 -51 102 -8 0 -15 -3 -15 -7z"/>
<path d="M2140 1065 l0 -205 75 0 c60 0 75 3 75 15 0 12 -13 15 -60 15 l-60 0
0 90 0 90 55 0 c42 0 55 3 55 15 0 12 -13 15 -55 15 l-55 0 0 70 0 69 57 3
c34 2 58 8 61 16 3 9 -16 12 -72 12 l-76 0 0 -205z"/>
<path d="M2360 1064 c0 -190 1 -205 18 -202 15 3 17 20 20 153 l4 150 51 -150
c38 -110 57 -151 70 -153 16 -3 17 12 17 202 0 175 -2 206 -15 206 -12 0 -15
-27 -17 -157 l-3 -158 -53 158 c-44 130 -57 157 -73 157 -18 0 -19 -10 -19
-206z"/>
<path d="M2600 1255 c0 -10 11 -15 35 -15 l35 0 0 -190 c0 -162 2 -190 15
-190 13 0 15 28 15 190 l0 190 35 0 c24 0 35 5 35 15 0 12 -16 15 -85 15 -69
0 -85 -3 -85 -15z"/>
<path d="M2830 1065 l0 -205 75 0 c62 0 73 2 69 15 -4 11 -21 15 -55 15 l-49
0 0 190 c0 183 -1 190 -20 190 -19 0 -20 -7 -20 -205z"/>
<path d="M3106 1253 c-19 -64 -87 -385 -82 -390 16 -16 35 12 46 71 l12 66 44
0 c43 0 43 -1 54 -42 19 -79 25 -93 44 -96 13 -3 17 1 14 9 -3 8 -25 101 -48
207 -36 160 -46 192 -61 192 -10 0 -20 -8 -23 -17z m45 -144 l15 -79 -39 0
c-32 0 -37 3 -33 18 3 9 10 48 17 85 6 37 14 65 18 62 3 -4 13 -42 22 -86z"/>
</g>
</svg>
