<svg width="125" height="129" viewBox="0 0 125 129" fill="none" xmlns="http://www.w3.org/2000/svg">
<path d="M122.86 79.2143L96.6891 64.1068L122.862 48.9951C124.907 47.814 125.606 45.2015 124.427 43.1566L111.607 20.9502C111.039 19.9695 110.106 19.2516 109.011 18.9595C107.917 18.6674 106.749 18.8176 105.768 19.3852L79.593 34.4969V4.27351C79.593 1.91139 77.6795 0 75.3195 0H49.6784C47.3184 0 45.4049 1.91139 45.4049 4.27351V34.4969L19.2318 19.3852C18.2511 18.826 17.0846 18.6757 15.9891 18.9595C14.8936 19.2516 13.9609 19.9695 13.3933 20.9502L0.572761 43.1566C-0.606209 45.2015 0.092826 47.814 2.13777 48.9951L28.3109 64.1068L2.13985 79.2143C1.15912 79.7819 0.441301 80.7167 0.149167 81.8101C-0.145054 82.9035 0.0093601 84.0721 0.574848 85.0528L13.3954 107.259C14.5743 109.304 17.1827 109.997 19.2339 108.824L45.4049 93.7167V123.932C45.4049 126.294 47.3184 128.205 49.6784 128.205H75.3195C77.6795 128.205 79.593 126.294 79.593 123.932V93.7125L105.766 108.824C106.749 109.392 107.92 109.542 109.009 109.25C110.104 108.958 111.037 108.24 111.605 107.259L124.425 85.0528C124.991 84.0721 125.145 82.9035 124.851 81.8101C124.559 80.7167 123.841 79.7819 122.86 79.2143Z" fill="white"/>
</svg>
